<svg xmlns="http://www.w3.org/2000/svg" viewBox="0 0 140 140" fill="none">
  <defs>
    <linearGradient id="grad-main" x1="0" y1="0" x2="140" y2="140" gradientUnits="userSpaceOnUse">
      <stop offset="0%" stop-color="#38bdf8"/>
      <stop offset="50%" stop-color="#818cf8"/>
      <stop offset="100%" stop-color="#c084fc"/>
    </linearGradient>
    <linearGradient id="grad-glow" x1="30" y1="20" x2="110" y2="120" gradientUnits="userSpaceOnUse">
      <stop offset="0%" stop-color="#38bdf8" stop-opacity="0.3"/>
      <stop offset="100%" stop-color="#c084fc" stop-opacity="0.05"/>
    </linearGradient>
  </defs>
  <rect x="4" y="4" width="132" height="132" rx="32" fill="#0f172a" stroke="url(#grad-main)" stroke-width="2"/>
  <rect x="4" y="4" width="132" height="132" rx="32" fill="url(#grad-glow)"/>
  <path d="M44 28h36l20 20v64a8 8 0 0 1-8 8H44a8 8 0 0 1-8-8V36a8 8 0 0 1 8-8z" fill="none" stroke="url(#grad-main)" stroke-width="3"/>
  <path d="M80 28v16a4 4 0 0 0 4 4h16" fill="none" stroke="url(#grad-main)" stroke-width="3"/>
  <circle cx="70" cy="78" r="8" fill="url(#grad-main)" opacity="0.9"/>
  <circle cx="70" cy="78" r="3" fill="#38bdf8"/>
  <circle cx="70" cy="56" r="4" fill="#818cf8" opacity="0.7"/>
  <circle cx="52" cy="96" r="4" fill="#c084fc" opacity="0.7"/>
  <circle cx="88" cy="96" r="4" fill="#38bdf8" opacity="0.7"/>
</svg>
